<?xml version="1.0" encoding="UTF-8"?>
<svg xmlns="http://www.w3.org/2000/svg" xmlns:xlink="http://www.w3.org/1999/xlink" width="450pt" height="438.75pt" viewBox="0 0 450 438.75" version="1.1">
<g id="surface1">
<path style=" stroke:none;fill-rule:nonzero;fill:rgb(0%,0%,35.693359%);fill-opacity:1;" d="M 79.6875 0 L 370.3125 0 C 414.378906 0 450 35.625 450 79.6875 L 450 359.0625 C 450 403.125 414.378906 438.75 370.3125 438.75 L 79.6875 438.75 C 35.625 438.75 0 403.125 0 359.0625 L 0 79.6875 C 0 35.625 35.625 0 79.6875 0 "/>
<path style=" stroke:none;fill-rule:nonzero;fill:rgb(59.959412%,59.959412%,100%);fill-opacity:1;" d="M 121.878906 225.183594 L 169.5 225.183594 C 168.375 221.246094 166.875 216.5625 165.1875 211.6875 C 163.503906 206.621094 161.8125 201.1875 160.128906 195.5625 C 158.25 189.746094 156.5625 184.121094 154.6875 178.3125 C 152.816406 172.5 151.128906 167.0625 149.625 161.625 C 148.125 156.375 146.8125 151.496094 145.5 146.996094 L 145.125 146.996094 C 143.4375 155.0625 141.375 163.121094 138.75 171.1875 C 135.9375 180.1875 133.128906 189.5625 130.125 198.9375 C 127.6875 208.5 124.691406 217.3125 121.878906 225.183594 M 180.75 262.5 L 111 262.5 L 96.75 306.746094 C 96.375 308.4375 94.878906 309.5625 93.191406 309.375 L 57.9375 309.375 C 55.875 309.375 55.3125 308.25 55.875 306 L 116.25 132.9375 C 116.8125 131.0625 117.375 129.375 118.125 127.125 C 118.875 123.1875 119.25 119.0625 119.25 114.9375 C 119.066406 114 119.8125 113.0625 120.753906 112.875 L 169.316406 112.875 C 170.625 112.875 171.5625 113.4375 171.75 114.371094 L 240.1875 306.5625 C 240.75 308.621094 240.1875 309.5625 238.3125 309.5625 L 199.125 309.5625 C 197.8125 309.746094 196.5 308.8125 196.128906 307.5 "/>
<path style=" stroke:none;fill-rule:nonzero;fill:rgb(59.959412%,59.959412%,100%);fill-opacity:1;" d="M 291.9375 217.871094 L 331.5 217.871094 C 336.375 217.871094 339.9375 217.871094 342.1875 217.6875 C 343.6875 217.5 345.191406 217.125 346.5 216.1875 L 346.5 214.3125 C 346.5 211.875 346.121094 209.625 345.375 207.375 C 342 196.875 332.0625 189.746094 321.003906 190.125 C 310.6875 189.5625 300.9375 195 296.0625 204.375 C 293.8125 208.6875 292.496094 213.1875 291.9375 217.871094 M 351.378906 245.25 L 291.9375 245.25 C 292.6875 251.0625 294.5625 256.875 297.75 261.9375 C 301.125 267 305.8125 270.9375 311.441406 273.1875 C 318.9375 276.375 327.1875 278.0625 335.4375 277.875 C 342 277.6875 348.5625 277.125 354.9375 275.8125 C 360.75 275.0625 366.375 273.5625 371.625 271.5 C 372.5625 270.75 373.125 271.121094 373.125 273 L 373.125 301.6875 C 373.125 302.4375 372.9375 303.1875 372.75 303.9375 C 372.375 304.5 372 304.875 371.4375 305.25 C 365.4375 307.875 359.25 309.75 352.6875 310.875 C 343.875 312.5625 335.0625 313.3125 326.0625 313.125 C 311.8125 313.125 299.8125 310.875 290.0625 306.5625 C 280.871094 302.625 272.8125 296.4375 266.4375 288.746094 C 260.4375 281.4375 256.125 273.1875 253.503906 264.1875 C 250.875 255.375 249.5625 246.1875 249.5625 236.808594 C 249.5625 226.6875 251.0625 216.746094 254.25 206.996094 C 257.25 197.625 261.9375 189 268.3125 181.3125 C 274.5 173.8125 282.1875 167.8125 291 163.5 C 299.8125 159.1875 310.316406 157.683594 322.3125 157.683594 C 332.25 157.5 342.1875 159.371094 351.378906 163.5 C 359.0625 166.875 365.8125 171.9375 371.0625 178.496094 C 375.9375 184.875 379.875 191.996094 382.3125 199.875 C 384.75 207.375 385.875 215.0625 385.875 222.75 C 385.875 227.25 385.6875 231.1875 385.5 234.75 C 385.128906 238.3125 384.9375 240.9375 384.75 242.625 C 384.5625 243.9375 383.4375 245.0625 382.125 245.0625 C 381 245.0625 378.9375 245.25 375.9375 245.4375 C 372.9375 245.8125 369.375 246 365.0625 246 C 360.75 246 356.25 245.25 351.378906 245.25 "/>
</g>
</svg>
