<svg xmlns="http://www.w3.org/2000/svg" width="60" height="60" viewBox="0 0 60 60">
  <g fill="none" fill-rule="evenodd">
    <path fill="#000" fill-rule="nonzero" d="M30,60 C54,60 60,54 60,30 C60,6 54,0 30,0 C6,0 0,6 0,30 C0,54 6,60 30,60 Z"/>
    <g fill="#FFF" fill-rule="nonzero" transform="translate(12.396 13.542)">
      <polygon points="27.917 6.146 27.917 32.396 33.542 32.396 33.542 .521 1.667 .521 1.667 6.146"/>
      <path d="M12.6822917,32.8645833 C6.33964649,32.8645833 1.19791667,27.7228535 1.19791667,21.3802083 C1.19791667,15.0375632 6.33964649,9.89583333 12.6822917,9.89583333 C19.0249368,9.89583333 24.1666667,15.0375632 24.1666667,21.3802083 C24.1666667,27.7228535 19.0249368,32.8645833 12.6822917,32.8645833 Z M12.6822917,27.2395833 C15.9183351,27.2395833 18.5416667,24.6162518 18.5416667,21.3802083 C18.5416667,18.1441649 15.9183351,15.5208333 12.6822917,15.5208333 C9.44624821,15.5208333 6.82291667,18.1441649 6.82291667,21.3802083 C6.82291667,24.6162518 9.44624821,27.2395833 12.6822917,27.2395833 Z"/>
    </g>
  </g>
</svg>
